<?xml version="1.0" encoding="UTF-8" standalone="no"?>
<!-- Created with Inkscape (http://www.inkscape.org/) -->

<svg
   width="215mm"
   height="208mm"
   viewBox="0 0 215 208"
   version="1.1"
   id="svg1"
   inkscape:version="1.3 (0e150ed6c4, 2023-07-21)"
   sodipodi:docname="logovectorizado.svg"
   xmlns:inkscape="http://www.inkscape.org/namespaces/inkscape"
   xmlns:sodipodi="http://sodipodi.sourceforge.net/DTD/sodipodi-0.dtd"
   xmlns="http://www.w3.org/2000/svg"
   xmlns:svg="http://www.w3.org/2000/svg">
  <sodipodi:namedview
     id="namedview1"
     pagecolor="#ffffff"
     bordercolor="#000000"
     borderopacity="0.25"
     inkscape:showpageshadow="2"
     inkscape:pageopacity="0.0"
     inkscape:pagecheckerboard="0"
     inkscape:deskcolor="#d1d1d1"
     inkscape:document-units="mm"
     inkscape:zoom="0.73139029"
     inkscape:cx="396.50513"
     inkscape:cy="560.57621"
     inkscape:window-width="1350"
     inkscape:window-height="1040"
     inkscape:window-x="796"
     inkscape:window-y="162"
     inkscape:window-maximized="0"
     inkscape:current-layer="layer1" />
  <defs
     id="defs1">
    <rect
       x="12.305332"
       y="717.811"
       width="34.181476"
       height="53.323103"
       id="rect4" />
  </defs>
  <g
     inkscape:label="Capa 1"
     inkscape:groupmode="layer"
     id="layer1">
    <path
       id="path10"
       style="fill:#5ea3ff;fill-opacity:1"
       d="m 116.45297,22.684159 c 39.61771,1.197847 70.81431,34.195166 69.78936,73.81773 C 185.21738,136.12446 181.67399,163.36134 61.722536,162.63343 27.861329,162.42795 41.619791,133.0369 42.298888,93.406888 42.977988,53.77689 75.564074,22.150994 115.19667,22.657147"
       sodipodi:nodetypes="ccssc"
       inkscape:label="path10" />
    <path
       style="fill:#ffffff;fill-opacity:1;stroke:#5ea3ff;stroke-width:3.175e-08;stroke-dasharray:none;stroke-opacity:1"
       d="m 82.804754,84.149437 c 0,15.193662 0,0 0,0 z"
       id="path19" />
    <path
       style="fill:#ffffff;fill-opacity:1;stroke:#5ea3ff;stroke-width:1.57017e-08;stroke-dasharray:none;stroke-opacity:1"
       d="m 98.845146,84.88823 0.17891,13.059949 -15.385702,0.89452 -8.05066,5.724901 -3.39917,9.30298 2.86247,8.40847 5.1882,4.65149 4.83039,2.50465 6.26161,0.35781 6.08271,-2.32575 5.724926,-5.90381 1.25233,-3.04137 0.1789,-3.57807 0.17891,-50.450758 1.25232,-6.798331 3.04136,-5.903814 4.29368,-4.293682 4.83039,-2.862454 3.39916,-1.789035 3.93588,-0.715614 3.93588,-0.536709 5.90381,0.715613 3.93588,1.431227 5.54601,2.683551 4.65147,4.472586 3.22028,4.65149 1.96792,4.651489 0.17891,2.683551 0.17891,5.367103 -0.71562,3.578069 -1.96793,2.504648 -4.47259,0.894517 -1.78903,-0.536711 -3.04137,-1.252324 -1.61012,-2.325744 0.3578,-3.220261 v -2.146841 -1.610131 l -0.53671,-2.146842 -0.35781,-1.967937 -1.25232,-1.252324 -1.61012,-1.252324 -2.32574,-1.610132 -1.61014,-0.53671 -1.78903,-0.357806 -1.96794,-0.536711 h -1.43123 l -3.39917,0.715614 -3.39916,2.325745 -1.61013,1.252324 -1.43123,1.431227 -0.71561,2.325745 -0.71562,4.651489 0.3578,17.35363 v 0.536707 l 2.86247,-0.1789 4.29367,0.1789 h 3.04136 l 4.11479,0.53671 2.86245,2.32574 0.53672,2.14684 v 3.041368 l -1.43125,3.041361 -2.14683,1.78903 -14.13338,-0.1789 v 16.101301 l -0.5367,5.72491 -1.07342,4.11479 -2.50465,4.47258 -2.32575,3.57808 -4.11477,4.11478 -5.90382,4.47258 -8.945166,2.14685 -11.62873,-0.89452 -7.51395,-3.39917 -6.08272,-4.29369 -4.114773,-6.26161 -2.504651,-5.72491 -1.073418,-6.44053 0.894518,-8.76627 4.472594,-9.660781 7.51393,-6.798339 7.87175,-4.29368 5.36711,-0.35781 z"
       id="path21" />
    <text
       xml:space="preserve"
       style="font-size:7.05556px;fill:#000000;stroke-width:0.264583"
       x="137.46649"
       y="203.66748"
       id="text1"><tspan
         id="tspan1"
         style="stroke-width:0.264583"
         sodipodi:role="line"></tspan></text>
    <text
       xml:space="preserve"
       style="font-style:normal;font-variant:normal;font-weight:normal;font-stretch:normal;font-size:7.05556px;font-family:'Liberation Sans';-inkscape-font-specification:'Liberation Sans';fill:#000000;stroke-width:0.264583"
       x="16.278929"
       y="200.77344"
       id="text2"><tspan
         sodipodi:role="line"
         style="font-style:italic;font-variant:normal;font-weight:normal;font-stretch:normal;font-family:'Liberation Sans';-inkscape-font-specification:'Liberation Sans Italic';stroke-width:0.264583"
         x="16.278929"
         y="200.77344"
         id="tspan5">Hugo Ruiz Sánchez / WET2 / IES VIRGEN DE LA PALOMA</tspan></text>
    <text
       xml:space="preserve"
       transform="scale(0.26458333)"
       id="text4"
       style="fill:#000000;font-size:26.66666667px;-inkscape-font-specification:'Liberation Sans';font-family:'Liberation Sans';font-weight:normal;font-style:normal;font-stretch:normal;font-variant:normal;white-space:pre;shape-inside:url(#rect4)" />
  </g>
</svg>
